<svg width="142" height="144" viewBox="0 0 71 72" fill="none" xmlns="http://www.w3.org/2000/svg">
<rect width="71" height="71.3717" rx="20" fill="#0F766E"/>
<path d="M50.5312 48.7143H20.4688C18.5494 48.7143 17 47.1829 17 45.2857V24.7143C17 22.8171 18.5494 21.2857 20.4688 21.2857H50.5312C52.4506 21.2857 54 22.8171 54 24.7143V45.2857C54 47.1829 52.4506 48.7143 50.5312 48.7143ZM20.4688 23.5714C19.8212 23.5714 19.3125 24.0743 19.3125 24.7143V45.2857C19.3125 45.9257 19.8212 46.4286 20.4688 46.4286H50.5312C51.1787 46.4286 51.6875 45.9257 51.6875 45.2857V24.7143C51.6875 24.0743 51.1787 23.5714 50.5312 23.5714H20.4688Z" fill="#F0F4F4"/>
<path d="M35.4999 39.48C33.8812 39.48 32.4012 38.84 31.2912 37.6743L19.1505 24.92C18.7112 24.4629 18.7343 23.7314 19.1968 23.2971C19.6593 22.8629 20.3993 22.8857 20.8387 23.3429L32.9793 36.0971C34.2974 37.4914 36.7024 37.4914 38.0205 36.0971L50.1612 23.3657C50.6005 22.9086 51.3405 22.8857 51.8031 23.32C52.2656 23.7543 52.2887 24.4857 51.8493 24.9429L39.7087 37.6971C38.5987 38.8629 37.1187 39.5029 35.4999 39.5029V39.48Z" fill="#F0F4F4"/>
</svg>
