<svg width="583" height="623" viewBox="0 0 583 623" fill="none" xmlns="http://www.w3.org/2000/svg">
<path fill-rule="evenodd" clip-rule="evenodd" d="M135.19 1.65566C129.164 3.80166 123.845 8.43666 120.669 14.3107C118.621 18.0997 118.49 19.8186 118.189 46.9516C117.985 65.3746 118.258 77.0277 118.954 79.6147C120.755 86.3007 126.061 92.9716 132.105 96.1446C142.9 101.813 157.362 98.2716 164.133 88.3006C168.156 82.3786 169.01 75.7747 168.974 50.8937C168.933 22.6227 168.198 16.4017 164.213 10.6097C158.17 1.82667 145.602 -2.05034 135.19 1.65566ZM395.634 1.27864C389.744 3.37864 384.802 7.83366 381.757 13.7897L379.007 19.1697L379.013 48.2396C379.016 65.1796 379.45 78.8646 380.053 81.0356C382.714 90.6186 393.519 98.8107 403.495 98.8107C414.06 98.8107 421.632 94.1087 426.846 84.3107L429.507 79.3107V49.8107C429.507 23.6437 429.301 19.7757 427.681 15.5787C423.182 3.91866 407.66 -3.00836 395.634 1.27864ZM65.4399 49.9317C49.8729 52.1737 34.952 59.8296 22.9699 71.7206C14.8879 79.7416 10.0039 87.1617 5.66193 98.0157C-0.313067 112.952 -0.00607288 101.33 0.00592712 312.156C0.0169271 501.004 0.0609277 505.494 1.99093 513.537C9.88193 546.416 37.7159 571.386 70.1669 574.698C80.6929 575.773 357.065 575.576 358.757 574.493C360.777 573.2 360.26 570.984 355.582 560.874C353.148 555.615 350.475 549.634 349.643 547.585L348.129 543.859L211.818 543.58C82.4609 543.315 75.2259 543.206 70.0069 541.458C57.9649 537.423 45.8859 527.43 40.7199 517.228C34.6209 505.184 35.0069 518.019 35.0069 327.185V152.923L37.4199 150.117L39.8339 147.311L271.839 147.055C418.575 146.893 504.773 147.152 506.373 147.76C507.764 148.289 509.713 149.959 510.705 151.472C512.411 154.076 512.521 160.457 512.777 271.576L513.047 388.93L516.62 390.423C518.585 391.244 525.187 394.387 531.291 397.408C537.395 400.428 543.316 402.767 544.448 402.605L546.507 402.311V258.811C546.507 95.8367 547.132 108.231 537.993 89.9787C528.23 70.4787 511.411 56.9496 490.007 51.3787C483.08 49.5756 447.63 47.9357 442.642 49.1877L440.007 49.8487V62.2806C440.007 76.9896 438.858 83.2837 434.749 91.0787C431.206 97.8017 426.196 102.64 418.793 106.489C414.135 108.911 412.379 109.242 404.007 109.274C395.815 109.306 393.75 108.954 389.007 106.717C382.044 103.432 375.852 97.2317 372.288 89.9747C369.639 84.5787 369.491 83.5166 369.173 67.5506C368.871 52.4336 368.656 50.6926 366.979 49.7956C365.773 49.1506 332.469 48.8897 272.313 49.0557L179.507 49.3107L178.901 65.3107C178.171 84.6096 176.567 89.8477 168.783 98.3647C160.897 106.994 151.302 110.649 139.719 109.439C127.301 108.141 117.182 101.079 111.776 89.9377C108.622 83.4387 108.552 82.9927 108.178 66.8107C107.926 55.9007 107.409 50.0617 106.652 49.5757C105.088 48.5727 72.951 48.8497 65.4399 49.9317ZM229.193 199.791C221.429 205.415 221.569 204.604 221.007 247.132C220.525 283.619 220.436 284.996 218.507 286.132C217.115 286.953 205.405 287.463 180.007 287.811C138.959 288.373 139.591 288.261 133.987 295.997L131.007 300.111V340.261V380.411L133.723 384.599C138.669 392.228 138.773 392.246 180.08 392.811C214.486 393.281 216.768 393.425 218.58 395.238C220.394 397.051 220.536 399.336 221.007 434.238C221.534 473.328 221.531 473.303 226.382 478.656C231.133 483.899 231.07 483.892 274.282 483.846L314.507 483.803L318.459 481.043C326.577 475.374 326.443 476.118 327.007 433.479C327.483 397.494 327.602 395.577 329.448 394.229C331.036 393.069 337.774 392.81 366.448 392.805C387.479 392.802 402.995 392.387 405.226 391.767C407.271 391.199 410.325 389.573 412.012 388.153C418.112 383.021 418.046 383.531 418.077 340.877C418.104 303.697 418.013 301.744 416.079 297.952C413.707 293.303 410.078 290.473 404.507 288.93C401.937 288.218 388.1 287.82 365.796 287.817C331.674 287.811 331.051 287.775 329.101 285.682C327.208 283.65 327.103 281.842 326.812 246.266L326.507 208.98L323.507 204.749C317.761 196.645 318.807 196.811 273.423 196.811H233.307L229.193 199.791ZM454.507 399.189C420.562 404.794 392.273 423.826 375.122 452.596C365.313 469.05 361.271 483.202 360.321 504.416C358.867 536.896 368.223 563.215 389.507 586.518C405.196 603.694 428.151 616.358 450.845 620.358C487.153 626.757 523.127 615.151 549.19 588.63C569.118 568.352 579.31 546.412 581.986 518.031C585.069 485.343 572.787 452.479 548.782 429.185C532.94 413.812 516.208 404.875 494.507 400.196C484.717 398.086 464.302 397.572 454.507 399.189ZM456.507 424.323C424.88 429.283 398.722 451.917 388.102 483.514C383.941 495.893 383.652 519.377 387.476 534.311C388.321 537.611 391.259 544.884 394.006 550.474C405.158 573.171 429.382 591.164 455.053 595.819C463.086 597.276 478.442 597.263 485.818 595.794C504.133 592.145 520.777 582.963 534.11 569.151C545.267 557.592 551.969 545.197 555.652 529.311C558.284 517.961 558.024 498.248 555.1 487.311C543.588 444.251 501.38 417.286 456.507 424.323ZM464.88 454.495C459.268 457.977 459.007 459.401 459.007 486.493C459.007 507.436 459.254 511.719 460.571 513.599C461.431 514.827 470.748 523.487 481.275 532.843C502.192 551.431 505.285 553.27 510.828 550.404C514.516 548.497 517.007 544.199 517.007 539.743C517.007 536.247 515.632 534.705 501.02 521.804C496.351 517.683 490.051 512.067 487.02 509.325C483.988 506.582 481.408 504.308 481.288 504.272C481.168 504.236 480.925 494.555 480.749 482.759C480.401 459.417 480.108 458.063 474.693 454.761C470.834 452.408 468.351 452.34 464.88 454.495Z" fill="url(#paint0_linear_55_3)"/>
<defs>
<linearGradient id="paint0_linear_55_3" x1="521" y1="596" x2="39.5" y2="81.5" gradientUnits="userSpaceOnUse">
<stop stop-color="#134E4A"/>
<stop offset="1" stop-color="#16A898"/>
</linearGradient>
</defs>
</svg>
